<svg width="40" height="40" viewBox="0 0 40 40" fill="none" xmlns="http://www.w3.org/2000/svg">
<path d="M40 20C40 31.0457 31.0457 40 20 40C8.9543 40 0 31.0457 0 20C0 8.9543 8.9543 0 20 0C31.0457 0 40 8.9543 40 20Z" fill="#02CACD"/>
<path d="M20 23.5H15.5C14.1044 23.5 13.4067 23.5 12.8389 23.6722C11.5605 24.06 10.56 25.0605 10.1722 26.3389C10 26.9067 10 27.6044 10 29M27 29V23M24 26H30M22.5 15.5C22.5 17.9853 20.4853 20 18 20C15.5147 20 13.5 17.9853 13.5 15.5C13.5 13.0147 15.5147 11 18 11C20.4853 11 22.5 13.0147 22.5 15.5Z" stroke="white" stroke-width="2" stroke-linecap="round" stroke-linejoin="round"/>
</svg>
