<svg width="40" height="40" viewBox="0 0 40 40" fill="none" xmlns="http://www.w3.org/2000/svg">
<path d="M40 20C40 31.0457 31.0457 40 20 40C8.9543 40 0 31.0457 0 20C0 8.9543 8.9543 0 20 0C31.0457 0 40 8.9543 40 20Z" fill="#FFBDBD"/>
<path d="M26 15H32M26 29V27.8C26 26.1198 26 25.2798 25.673 24.638C25.3854 24.0735 24.9265 23.6146 24.362 23.327C23.7202 23 22.8802 23 21.2 23H16.8C15.1198 23 14.2798 23 13.638 23.327C13.0735 23.6146 12.6146 24.0735 12.327 24.638C12 25.2798 12 26.1198 12 27.8V29M22.5 15.5C22.5 17.433 20.933 19 19 19C17.067 19 15.5 17.433 15.5 15.5C15.5 13.567 17.067 12 19 12C20.933 12 22.5 13.567 22.5 15.5Z" stroke="#EF2E2E" stroke-width="2" stroke-linecap="round" stroke-linejoin="round"/>
</svg>
