<svg width="40" height="40" viewBox="0 0 40 40" fill="none" xmlns="http://www.w3.org/2000/svg">
<circle cx="20" cy="20" r="20" fill="#F1F7FE"/>
<path d="M19 23.5H17.5C16.1044 23.5 15.4067 23.5 14.8389 23.6722C13.5605 24.06 12.56 25.0605 12.1722 26.3389C12 26.9067 12 27.6044 12 29M24.5 15.5C24.5 17.9853 22.4853 20 20 20C17.5147 20 15.5 17.9853 15.5 15.5C15.5 13.0147 17.5147 11 20 11C22.4853 11 24.5 13.0147 24.5 15.5ZM21 29L24.1014 28.1139C24.2499 28.0715 24.3241 28.0502 24.3934 28.0184C24.4549 27.9902 24.5134 27.9558 24.5679 27.9158C24.6293 27.8707 24.6839 27.8161 24.7932 27.7068L31.25 21.25C31.9404 20.5597 31.9404 19.4403 31.25 18.75C30.5597 18.0596 29.4404 18.0596 28.75 18.75L22.2932 25.2068C22.1839 25.3161 22.1293 25.3707 22.0842 25.4321C22.0442 25.4866 22.0098 25.5451 21.9816 25.6066C21.9497 25.6759 21.9285 25.7501 21.8861 25.8987L21 29Z" stroke="#0B63C5" stroke-width="2" stroke-linecap="round" stroke-linejoin="round"/>
</svg>
