<svg width="40" height="40" viewBox="0 0 40 40" fill="none" xmlns="http://www.w3.org/2000/svg">
<circle cx="20" cy="20" r="20" fill="#F1F7FE"/>
<path d="M16 18.5H16.01M20.5 18.5H20.51M25 18.5H25.01M15.5 26V28.3355C15.5 28.8684 15.5 29.1348 15.6092 29.2716C15.7042 29.3906 15.8483 29.4599 16.0005 29.4597C16.1756 29.4595 16.3837 29.2931 16.7998 28.9602L19.1852 27.0518C19.6725 26.662 19.9162 26.4671 20.1875 26.3285C20.4282 26.2055 20.6844 26.1156 20.9492 26.0613C21.2477 26 21.5597 26 22.1837 26H24.7C26.3802 26 27.2202 26 27.862 25.673C28.4265 25.3854 28.8854 24.9265 29.173 24.362C29.5 23.7202 29.5 22.8802 29.5 21.2V15.8C29.5 14.1198 29.5 13.2798 29.173 12.638C28.8854 12.0735 28.4265 11.6146 27.862 11.327C27.2202 11 26.3802 11 24.7 11H16.3C14.6198 11 13.7798 11 13.138 11.327C12.5735 11.6146 12.1146 12.0735 11.827 12.638C11.5 13.2798 11.5 14.1198 11.5 15.8V22C11.5 22.93 11.5 23.395 11.6022 23.7765C11.8796 24.8117 12.6883 25.6204 13.7235 25.8978C14.105 26 14.57 26 15.5 26ZM16.5 18.5C16.5 18.7761 16.2761 19 16 19C15.7239 19 15.5 18.7761 15.5 18.5C15.5 18.2239 15.7239 18 16 18C16.2761 18 16.5 18.2239 16.5 18.5ZM21 18.5C21 18.7761 20.7761 19 20.5 19C20.2239 19 20 18.7761 20 18.5C20 18.2239 20.2239 18 20.5 18C20.7761 18 21 18.2239 21 18.5ZM25.5 18.5C25.5 18.7761 25.2761 19 25 19C24.7239 19 24.5 18.7761 24.5 18.5C24.5 18.2239 24.7239 18 25 18C25.2761 18 25.5 18.2239 25.5 18.5Z" stroke="#0B63C5" stroke-width="2" stroke-linecap="round" stroke-linejoin="round"/>
</svg>
