<svg width="32" height="32" viewBox="0 0 32 32" fill="none" xmlns="http://www.w3.org/2000/svg">
<path d="M12.04 28.9201L15.1467 26.3067C15.6134 25.9067 16.3867 25.9067 16.8534 26.3067L19.96 28.9201C20.68 29.2801 21.56 28.9201 21.8267 28.1467L22.4134 26.3734C22.56 25.9467 22.4134 25.3201 22.0934 25.0001L19.0667 21.9601C18.84 21.7467 18.6667 21.3201 18.6667 21.0134V17.2134C18.6667 16.6534 19.08 16.3867 19.6 16.6001L26.1467 19.4267C27.1734 19.8667 28.0134 19.3201 28.0134 18.2001V16.4801C28.0134 15.5867 27.3467 14.5601 26.52 14.2134L19.0667 11.0001C18.8534 10.9067 18.6667 10.6267 18.6667 10.3867V6.38672C18.6667 5.13339 17.7467 3.65339 16.6267 3.08005C16.2267 2.88005 15.76 2.88005 15.36 3.08005C14.24 3.65339 13.32 5.14672 13.32 6.40005V10.4001C13.32 10.6401 13.1334 10.9201 12.92 11.0134L5.48003 14.2267C4.65336 14.5601 3.98669 15.5867 3.98669 16.4801V18.2001C3.98669 19.3201 4.82669 19.8667 5.85336 19.4267L12.4 16.6001C12.9067 16.3734 13.3334 16.6534 13.3334 17.2134V21.0134C13.3334 21.3201 13.16 21.7467 12.9467 21.9601L9.92003 25.0001C9.60003 25.3201 9.45336 25.9334 9.60003 26.3734L10.1867 28.1467C10.4267 28.9201 11.3067 29.2934 12.04 28.9201Z" stroke="white" stroke-width="1.5" stroke-linecap="round" stroke-linejoin="round"/>
</svg>
