<svg width="32" height="32" viewBox="0 0 32 32" fill="none" xmlns="http://www.w3.org/2000/svg">
<path d="M16.4933 2.86662L28.4933 7.66659C28.96 7.85325 29.3333 8.41325 29.3333 8.90658V13.3333C29.3333 14.0666 28.7333 14.6666 28 14.6666H3.99996C3.26663 14.6666 2.66663 14.0666 2.66663 13.3333V8.90658C2.66663 8.41325 3.03997 7.85325 3.50663 7.66659L15.5066 2.86662C15.7733 2.75995 16.2266 2.75995 16.4933 2.86662Z" stroke="white" stroke-width="1.5" stroke-miterlimit="10" stroke-linecap="round" stroke-linejoin="round"/>
<path d="M29.3333 29.3333H2.66663V25.3333C2.66663 24.6 3.26663 24 3.99996 24H28C28.7333 24 29.3333 24.6 29.3333 25.3333V29.3333Z" stroke="white" stroke-width="1.5" stroke-miterlimit="10" stroke-linecap="round" stroke-linejoin="round"/>
<path d="M5.33337 24.0001V14.6667" stroke="white" stroke-width="1.5" stroke-miterlimit="10" stroke-linecap="round" stroke-linejoin="round"/>
<path d="M10.6666 24.0001V14.6667" stroke="white" stroke-width="1.5" stroke-miterlimit="10" stroke-linecap="round" stroke-linejoin="round"/>
<path d="M16 24.0001V14.6667" stroke="white" stroke-width="1.5" stroke-miterlimit="10" stroke-linecap="round" stroke-linejoin="round"/>
<path d="M21.3334 24.0001V14.6667" stroke="white" stroke-width="1.5" stroke-miterlimit="10" stroke-linecap="round" stroke-linejoin="round"/>
<path d="M26.6666 24.0001V14.6667" stroke="white" stroke-width="1.5" stroke-miterlimit="10" stroke-linecap="round" stroke-linejoin="round"/>
<path d="M1.33337 29.3333H30.6667" stroke="white" stroke-width="1.5" stroke-miterlimit="10" stroke-linecap="round" stroke-linejoin="round"/>
<path d="M16 11.3333C17.1046 11.3333 18 10.4378 18 9.33325C18 8.22868 17.1046 7.33325 16 7.33325C14.8954 7.33325 14 8.22868 14 9.33325C14 10.4378 14.8954 11.3333 16 11.3333Z" stroke="white" stroke-width="1.5" stroke-miterlimit="10" stroke-linecap="round" stroke-linejoin="round"/>
</svg>
