<svg width="32" height="32" viewBox="0 0 32 32" fill="none" xmlns="http://www.w3.org/2000/svg">
<path d="M11.9599 29.3333H19.9599C26.6266 29.3333 29.2933 26.6666 29.2933 20V12C29.2933 5.33329 26.6266 2.66663 19.9599 2.66663H11.9599C5.29325 2.66663 2.62659 5.33329 2.62659 12V20C2.62659 26.6666 5.29325 29.3333 11.9599 29.3333Z" stroke="white" stroke-width="1.5" stroke-linecap="round" stroke-linejoin="round"/>
<path d="M2.62659 16.9333L10.6266 16.9066C11.6266 16.9066 12.7466 17.6666 13.1199 18.5999L14.6399 22.4399C14.9866 23.3066 15.5333 23.3066 15.8799 22.4399L18.9333 14.6933C19.2266 13.9466 19.7733 13.9199 20.1466 14.6266L21.5333 17.2533C21.9466 18.0399 23.0133 18.6799 23.8933 18.6799H29.3066" stroke="white" stroke-width="1.5" stroke-linecap="round" stroke-linejoin="round"/>
</svg>
