<svg width="32" height="32" viewBox="0 0 32 32" fill="none" xmlns="http://www.w3.org/2000/svg">
<path d="M25.3333 4H6.66667C5.19333 4 4 5.19333 4 6.66667V25.3333C4 26.8067 5.19333 28 6.66667 28H25.3333C26.8067 28 28 26.8067 28 25.3333V6.66667C28 5.19333 26.8067 4 25.3333 4ZM22.7333 12.6853C22.7333 12.8 22.7333 12.9133 22.7333 13.1427C22.7333 17.4853 19.4187 22.5147 13.3613 22.5147C11.5333 22.5147 9.81867 21.9427 8.33333 21.0293C8.56133 21.0293 8.90533 21.0293 9.13333 21.0293C10.6187 21.0293 12.1053 20.4573 13.248 19.6573C11.7627 19.6573 10.62 18.6293 10.1627 17.372C10.3907 17.372 10.62 17.4867 10.7347 17.4867C11.0773 17.4867 11.3067 17.4867 11.6493 17.372C10.164 17.0293 9.02133 15.772 9.02133 14.172C9.47867 14.4 9.936 14.5147 10.5067 14.6293C9.592 13.8293 9.02133 12.9147 9.02133 11.772C9.02133 11.2 9.136 10.6293 9.47867 10.172C11.0787 12.1147 13.4787 13.4867 16.2213 13.6C16.2213 13.372 16.1067 13.1427 16.1067 12.8C16.1067 10.972 17.592 9.48533 19.4213 9.48533C20.336 9.48533 21.2493 9.828 21.8213 10.5133C22.6213 10.3987 23.3067 10.056 23.8787 9.71333C23.6507 10.5133 23.0787 11.0853 22.3933 11.5413C23.0787 11.4267 23.6507 11.3133 24.336 10.9693C23.876 11.6573 23.3053 12.228 22.7333 12.6853Z" fill="white"/>
<path d="M25.3333 4H6.66667C5.19333 4 4 5.19333 4 6.66667V25.3333C4 26.8067 5.19333 28 6.66667 28H25.3333C26.8067 28 28 26.8067 28 25.3333V6.66667C28 5.19333 26.8067 4 25.3333 4ZM22.7333 12.6853C22.7333 12.8 22.7333 12.9133 22.7333 13.1427C22.7333 17.4853 19.4187 22.5147 13.3613 22.5147C11.5333 22.5147 9.81867 21.9427 8.33333 21.0293C8.56133 21.0293 8.90533 21.0293 9.13333 21.0293C10.6187 21.0293 12.1053 20.4573 13.248 19.6573C11.7627 19.6573 10.62 18.6293 10.1627 17.372C10.3907 17.372 10.62 17.4867 10.7347 17.4867C11.0773 17.4867 11.3067 17.4867 11.6493 17.372C10.164 17.0293 9.02133 15.772 9.02133 14.172C9.47867 14.4 9.936 14.5147 10.5067 14.6293C9.592 13.8293 9.02133 12.9147 9.02133 11.772C9.02133 11.2 9.136 10.6293 9.47867 10.172C11.0787 12.1147 13.4787 13.4867 16.2213 13.6C16.2213 13.372 16.1067 13.1427 16.1067 12.8C16.1067 10.972 17.592 9.48533 19.4213 9.48533C20.336 9.48533 21.2493 9.828 21.8213 10.5133C22.6213 10.3987 23.3067 10.056 23.8787 9.71333C23.6507 10.5133 23.0787 11.0853 22.3933 11.5413C23.0787 11.4267 23.6507 11.3133 24.336 10.9693C23.876 11.6573 23.3053 12.228 22.7333 12.6853Z" fill="url(#paint0_linear_10061_10304)"/>
<defs>
<linearGradient id="paint0_linear_10061_10304" x1="16.3348" y1="11.2117" x2="25.2826" y2="27.3251" gradientUnits="userSpaceOnUse">
<stop stop-color="#0B63C5"/>
<stop offset="1" stop-color="#073D79"/>
</linearGradient>
</defs>
</svg>
