<svg width="32" height="32" viewBox="0 0 32 32" fill="none" xmlns="http://www.w3.org/2000/svg">
<path d="M19.0157 20.5846H12.349" stroke="white" stroke-width="1.5" stroke-miterlimit="10" stroke-linecap="round" stroke-linejoin="round"/>
<path d="M15.6823 17.3307V23.9974" stroke="white" stroke-width="1.5" stroke-miterlimit="10" stroke-linecap="round" stroke-linejoin="round"/>
<path d="M16.8799 3.35747L16.8399 3.45081L12.9733 12.4241H9.17328C8.26661 12.4241 7.39995 12.6108 6.61328 12.9441L8.94661 7.37081L8.99995 7.23747L9.09328 7.02414C9.11995 6.94414 9.14662 6.86414 9.18662 6.79747C10.9333 2.75747 12.9066 1.83747 16.8799 3.35747Z" stroke="white" stroke-width="1.5" stroke-linecap="round" stroke-linejoin="round"/>
<path d="M24.0667 12.6909C23.4667 12.5042 22.8267 12.4242 22.1867 12.4242H12.9734L16.8401 3.45088L16.8801 3.35754C17.0801 3.42421 17.2667 3.51754 17.4667 3.59754L20.4134 4.83754C22.0534 5.51754 23.2001 6.22421 23.8934 7.07754C24.0267 7.23754 24.1334 7.38421 24.2267 7.55754C24.3467 7.74421 24.4401 7.93088 24.4934 8.13088C24.5467 8.25088 24.5867 8.37088 24.6134 8.47754C24.9734 9.59754 24.7601 10.9709 24.0667 12.6909Z" stroke="white" stroke-width="1.5" stroke-linecap="round" stroke-linejoin="round"/>
<path d="M28.6956 18.9311V21.5311C28.6956 21.7978 28.6823 22.0644 28.6689 22.3311C28.4156 26.9844 25.8156 29.3311 20.8823 29.3311H10.4823C10.1623 29.3311 9.84225 29.3044 9.53558 29.2644C5.29558 28.9844 3.02892 26.7178 2.74892 22.4778C2.70892 22.1711 2.68225 21.8511 2.68225 21.5311V18.9311C2.68225 16.2511 4.30892 13.9444 6.62892 12.9444C7.42892 12.6111 8.28225 12.4244 9.18892 12.4244H22.2023C22.8556 12.4244 23.4956 12.5178 24.0823 12.6911C26.7356 13.5044 28.6956 15.9844 28.6956 18.9311Z" stroke="white" stroke-width="1.5" stroke-linecap="round" stroke-linejoin="round"/>
<path d="M8.94663 7.37085L6.61329 12.9442C4.29329 13.9442 2.66663 16.2508 2.66663 18.9309V15.0242C2.66663 11.2375 5.35996 8.07752 8.94663 7.37085Z" stroke="white" stroke-width="1.5" stroke-linecap="round" stroke-linejoin="round"/>
<path d="M28.6915 15.0236V18.9302C28.6915 15.9969 26.7448 13.5036 24.0781 12.7036C24.7715 10.9702 24.9715 9.61025 24.6381 8.47692C24.6115 8.35692 24.5715 8.23692 24.5181 8.13025C26.9981 9.41025 28.6915 12.0369 28.6915 15.0236Z" stroke="white" stroke-width="1.5" stroke-linecap="round" stroke-linejoin="round"/>
</svg>
